# xmcd
#
# Track frame offsets:
#	150
#	15655
#	34954
#	48562
#	62032
#	75836
#	88209
#	102292
#	117581
#	131949
#	146763
#	161150
#	175224
#	190434
#
# Disc length: 2739
#
# Revision: 2
# Processed by: cddbd v1.5.1PL0 Copyright (c) Steve Scherf et al.
# Submitted via: audiograbber 1.83.01
# Normalized: r1:DSETVAR1
#
DISCID=cb0ab10e
DTITLE=Various Artist - Goldene Volksmusikparade 2003_4
DYEAR=2003
DGENRE=Volksmusik
TTITLE0=Klostertaler - Zaubermaus
TTITLE1=Monika Martin - Ich bin die Zeit
TTITLE2=Nockalm Quintett - Vergiss es
TTITLE3=Begfeuer - Ikarus
TTITLE4=Marc Pircher - Des is Hoamat
TTITLE5=Zellberg Buam - Wir sind jung wir sind frei
TTITLE6=Steirerbluat - Volle Pulle
TTITLE7=Francine Jordi - Nur wer träumen kann
TTITLE8=Die Edlseer - Es geht mir guat
TTITLE9=Marianne Cathomen - Bambino Blue
TTITLE10=Alpentrio Tirol - Hawaii ist kein Tirolerland
TTITLE11=Dirk Schiefen - Santa Lucia
TTITLE12=Die fidelen Mölltaler - Oh Mamma Mia
TTITLE13=Die jungen Zillertaler - In die Berg is Partytime
EXTD=
EXTT0=
EXTT1=
EXTT2=
EXTT3=
EXTT4=
EXTT5=
EXTT6=
EXTT7=
EXTT8=
EXTT9=
EXTT10=
EXTT11=
EXTT12=
EXTT13=
PLAYORDER=
